PathFileType	4	(X/Y/Z)	C:\Users\WrightLab\Desktop\Jo\P2_Trial28.trc
DataRate	CameraRate	NumFrames	NumMarkers	Units	OrigDataRate	OrigDataStartFrame	OrigNumFrames
100.00	100.00	       21	19	mm	100.00	355	       472
Frame#	Time	Headset_Front			Headset_Back			Headset_Left			Headset_Right			Left_Shoulder			Right_Shoulder			Sternum			C7			Left Elbow			Right Elbow			Left Wrist			Right Wrist			Left ASIS			Right ASIS			S2			Left Knee			Right Knee			Left Ankle			Right Ankle			
		X1	Y1	Z1	X2	Y2	Z2	X3	Y3	Z3	X4	Y4	Z4	X5	Y5	Z5	X6	Y6	Z6	X7	Y7	Z7	X8	Y8	Z8	X9	Y9	Z9	X10	Y10	Z10	X11	Y11	Z11	X12	Y12	Z12	X13	Y13	Z13	X14	Y14	Z14	X15	Y15	Z15	X16	Y16	Z16	X17	Y17	Z17	X18	Y18	Z18	X19	Y19	Z19	

355	3.540	33.45737	1498.60852	1873.78418				-102.68049	1463.84656	1657.11707	-61.57728	1571.77869	1782.90552	218.25449	1456.12488	1627.99023	164.91142	1614.64758	1758.01172	58.95582	1354.94788	1726.36707	65.20087	1713.12549	1650.08289	333.98019	1107.37402	1621.41968	-202.28925	1151.39575	1719.59827	370.12387	866.81128	1633.43677	-231.96364	928.01953	1841.64075	109.37230	1075.22925	1792.63257	-24.71272	1055.06824	1770.63831	100.45928	957.86353	1540.49976	216.74725	521.57013	1884.13440	-49.84938	542.66492	1738.00244	160.38135	172.12762	1915.15771	-13.94428	251.69765	1523.13513	
356	3.550	30.86703	1501.53784	1884.28711				-103.66084	1467.47437	1664.13440	-63.99105	1574.84692	1791.45935	216.88106	1460.28076	1639.23035				56.64935	1359.09412	1736.23706	64.02619	1716.63965	1660.15723	332.22055	1109.86682	1633.01709	-202.95045	1154.21411	1723.48145	369.02667	869.10736	1649.09387	-234.56200	933.48151	1845.64795	105.88960	1079.26282	1801.25391	-27.36380	1058.52039	1777.78528	100.99652	961.69037	1549.93457	216.30205	525.35345	1893.46765	-55.95956	550.27612	1756.44434	154.95242	176.48935	1908.80591	-18.46455	254.78470	1547.57397	
357	3.560	27.35893	1504.01709	1892.30884				-105.25277	1472.38525	1671.65637	-66.62515	1577.85815	1800.95374	160.62271	1622.38037	1781.21033				54.02970	1362.02161	1743.41809	62.68368	1720.30200	1670.54724	331.69211	1114.99792	1650.84509	-202.52301	1157.90356	1722.67383	368.27515	873.80005	1668.74866	-236.51051	933.31433	1843.85278	103.07805	1082.53735	1808.96265	-30.10056	1062.03955	1784.36804	100.78021	965.43304	1557.75842	216.17929	526.63391	1900.01270	-63.01129	559.84052	1776.89783	150.68048	178.66057	1900.39307	-23.13475	255.92415	1571.82739	
358	3.570	24.80396	1507.12415	1901.62964				-106.72968	1475.81360	1678.72461	-68.91660	1580.29919	1807.97192							52.48590	1365.61438	1752.31226	60.77399	1724.25256	1680.53638	331.37747	1119.30286	1666.87878	-203.46410	1161.33533	1725.47278	366.41037	879.13892	1690.93701	-239.47330	939.19141	1848.98633	99.54206	1086.41174	1819.05786	-33.78006	1066.09045	1792.34070	100.73370	969.38513	1566.96936	216.31448	528.33862	1906.45007	-70.83013	568.07275	1792.58203	145.22444	181.32379	1896.08557	-26.34352	256.66367	1594.91711	
359	3.580	21.47599	1509.51404	1909.77490				-108.51879	1479.56763	1687.03076	-71.24194	1583.27258	1817.51892	155.79341	1628.76306	1799.91113				49.46111	1368.88391	1759.83960	58.97628	1727.95007	1690.74170	331.05249	1123.84753	1683.56189	-205.21704	1164.31921	1729.03333	365.15671	884.10724	1711.96741	-243.07472	941.25378	1849.20447	97.11448	1089.30017	1826.20740				98.66383	972.36511	1576.33215	217.60510	531.56262	1915.46655	-78.90043	577.37305	1807.31287	140.45238	183.61130	1892.15076	-32.09089	257.92032	1621.71973	
360	3.590	18.03951	1512.08276	1918.50061				-110.55643	1483.43018	1694.55054	-74.27005	1586.14209	1824.79980	152.88992	1632.24084	1811.82251				46.84978	1372.41370	1770.21069	57.17632	1731.19946	1700.26440	330.17630	1128.72058	1701.53625	-206.83820	1166.97864	1730.91162	363.69049	889.39319	1733.77136	-246.76866	943.34320	1849.93420	94.90464	1092.23901	1834.61267				97.14639	975.03448	1582.40320	216.29384	532.04736	1919.51965	-86.26026	586.66473	1821.77844	135.71965	187.32358	1891.66577	-36.87217	257.65662	1646.78369	
361	3.600	14.96284	1515.30688	1927.94324				-112.72253	1488.02087	1704.16589	-76.91623	1589.10193	1834.05139	150.81490	1635.22534	1821.33411				44.28088	1375.01599	1777.97412	54.81153	1733.95068	1710.71851	330.31622	1132.48267	1716.65356	-208.83076	1170.07007	1733.28430	361.58990	895.03223	1756.43835	-250.63670	945.51288	1850.44141	92.34693	1094.67871	1843.04114				96.01603	977.54681	1590.74890	216.73065	530.68195	1921.44751	-91.85258	594.95172	1830.13770				-42.26196	258.21829	1673.01477	
362	3.610	10.84194	1517.71826	1936.88086				-115.20595	1491.47937	1711.73315	-80.20193	1591.65198	1843.12012	147.32950	1638.03308	1831.40308				41.84944	1378.31604	1788.28369				330.16122	1137.16675	1733.93286	-211.18114	1172.19971	1735.86853	359.78204	900.45007	1778.53577	-255.47882	946.56116	1849.72815	90.46449	1096.85095	1850.88574				94.24077	980.12128	1599.18750	216.20622	529.65021	1923.05432	-99.71027	601.77960	1840.73340				-49.39152	256.22214	1699.04626	
363	3.620	7.23231	1520.51160	1946.72266							-83.48830	1593.25146	1850.42859	144.66956	1640.85681	1841.65491				38.92839	1379.96338	1796.38635				328.98776	1141.95117	1752.66724	-213.65895	1173.90710	1738.83838	357.67282	906.20062	1800.58752	-260.44064	947.28510	1849.35132	87.70844	1098.77527	1859.96301				93.11684	981.93872	1606.28015	215.36584	528.56390	1924.89099	-107.12574	607.48792	1851.04590				-56.82272	254.02336	1725.63245	
364	3.630	3.12547	1523.31421	1956.40112							-86.58433	1595.02161	1859.67920	141.07909	1642.83398	1852.10278				36.58200	1382.11401	1807.10730				327.74646	1145.12354	1769.04980	-216.28026	1175.15308	1741.73901	355.99448	911.51849	1822.52588	-265.47443	947.85358	1848.95337	85.24593	1100.46094	1869.37073				91.18111	983.70605	1613.99023	214.99551	525.28644	1925.18896	-113.90838	611.91418	1861.06262				-63.91689	251.31300	1752.45093	
365	3.640	-1.25250	1525.48865	1965.62903	46.09421	1741.55713	1745.81799				-89.56373	1597.20752	1867.99622	137.82874	1645.24072	1862.21301				34.32469	1382.90906	1814.13269				326.43930	1149.57947	1787.37500	-219.14293	1176.53711	1743.46509	353.65182	916.17200	1844.62976	-270.79337	948.12524	1847.52026	82.95764	1100.88684	1877.23877	-49.99092	1086.50415	1843.77991	90.30724	985.04895	1623.33801	214.47011	523.25690	1926.92139	-119.86730	616.33679	1870.87036				-70.73586	246.15869	1780.71448	
366	3.650	-4.83847	1527.38782	1976.10181	43.70893	1742.16089	1754.94348				-93.06576	1598.18616	1875.60950							31.77989	1384.26636	1824.80664				325.21927	1152.96960	1805.58679	-222.01953	1177.22620	1744.43945	351.13361	921.44098	1867.52698	-276.02579	948.13190	1846.11157	80.71227	1100.99231	1885.75696	-51.53442	1087.27710	1849.67920	88.07010	986.85938	1630.02307	213.49373	521.37891	1927.84802	-125.87029	619.71765	1880.84082				-78.43995	242.63318	1806.75745	
367	3.660	-9.29319	1528.99817	1985.46082	41.27792	1742.31433	1763.54944	130.91409	1647.90796	1883.07214	-96.59100	1598.72595	1884.30249							28.68051	1384.43188	1832.97510				323.82245	1156.07935	1822.52490	-224.75230	1177.47559	1746.43579	349.45905	925.25977	1888.96643	-281.34958	947.50641	1844.62976	77.84647	1100.34070	1894.75342	-53.54525	1086.47241	1855.75244	86.74294	987.72192	1637.13171	213.98068	517.69574	1927.00830	-132.35008	622.59473	1889.02722				-85.54604	237.64638	1833.64246	
368	3.670	-13.56408	1530.35986	1994.68079	38.49906	1742.67639	1772.33459				-99.94012	1599.66870	1894.06262							25.92327	1384.58521	1843.90369				322.01395	1158.64612	1841.20056	-227.75510	1177.58667	1746.96851	346.62500	929.58899	1911.80408	-286.91379	946.74670	1843.19177	75.39816	1099.64514	1902.73340	-55.53149	1085.29797	1863.31824	84.17525	988.39539	1644.14246	212.73056	515.31549	1928.60803	-138.70512	624.58411	1898.64758				-94.36800	231.52589	1860.15112	
369	3.680	-17.62631	1531.35999	2004.90393	35.31998	1742.42102	1781.46741	123.64703	1649.20776	1903.36768	-103.49895	1599.78015	1902.23438	195.48312	1495.16870	1801.66467				23.29861	1383.79944	1851.07092				320.73422	1161.49365	1859.48071	-230.74998	1177.06616	1748.90466	344.77292	933.22687	1932.73291	-292.04196	945.54443	1841.69666	72.44435	1098.11560	1911.53967	-57.96743	1084.35156	1870.49524	82.22915	988.52234	1654.33728	212.60478	511.78525	1927.01917	-144.52869	626.07819	1908.62292				-103.61098	226.00362	1888.24512	
370	3.690	-22.27154	1531.64685	2014.44189	33.04624	1741.95190	1790.72632				-106.98538	1599.11255	1909.79993	192.62170	1494.49109	1811.99951				20.23257	1383.08276	1859.95947				318.69742	1163.40833	1876.24158	-233.70033	1176.52112	1750.33691	342.20367	936.85754	1954.58142	-296.99316	944.36359	1839.55115	69.43488	1096.42078	1919.02454	-60.85551	1083.77893	1877.45752	80.17686	988.39099	1660.24072	211.91946	508.17017	1925.35925	-150.03572	627.33618	1918.73010				-113.26948	220.98808	1917.09778	
371	3.700	-26.99551	1531.83679	2023.23340	30.19074	1740.67053	1799.03845	116.21770	1649.61304	1923.60522	-111.56665	1599.27795	1919.26270	189.72311	1494.18140	1822.69556				16.93990	1381.60596	1870.01978				316.92471	1165.28784	1894.55029	-236.53242	1175.99048	1751.14905	338.72305	940.31537	1977.34351	-302.07675	942.83374	1838.02820	66.68752	1094.99707	1927.23645	-64.01511	1081.66589	1884.72644	78.28719	988.85931	1668.35266	211.04410	505.99921	1923.21838	-154.58154	628.29993	1928.42908				-122.85442	215.17607	1943.62842	
372	3.710	-31.36134	1531.34143	2032.22791	27.07194	1740.51599	1809.39734				-114.63969	1598.47607	1928.15869							13.64085	1379.91394	1877.00586				314.21509	1166.80310	1912.59851	-239.42912	1175.05750	1752.32507	335.43549	943.55865	1998.26440	-306.66721	940.85376	1837.02356	63.52355	1092.42871	1934.95959	-67.21256	1080.94470	1892.38782	76.73959	988.04584	1676.65308	209.60268	502.33829	1921.33325	-158.64224	629.07214	1937.58960				-133.59676	209.34192	1970.40796	
373	3.720	-36.29396	1531.16077	2042.61731	24.02465	1739.44031	1818.28796	108.51215	1648.46814	1943.83679	-118.45437	1597.45581	1936.19995	183.80502	1492.08911	1843.56348				10.38478	1378.27087	1885.97168				311.56003	1168.47327	1929.84460	-241.97112	1174.07166	1755.02686	332.08875	945.92822	2019.25464	-311.06268	938.92743	1835.44275	59.48310	1091.66040	1943.67688	-70.38200	1079.50085	1900.48804	74.90963	988.30273	1684.01941	208.29897	499.70615	1918.56470	-162.16756	628.99310	1944.55493				-145.76889	206.42407	2000.45752	
374	3.730	-40.68429	1529.67920	2051.07593	21.05127	1738.65027	1828.24451	104.28912	1647.49792	1953.84814	-122.88762	1596.63708	1945.18726	179.84935	1491.37695	1855.17273				6.88887	1377.44055	1895.75024				308.92630	1169.24207	1946.60437	-244.54420	1172.86108	1756.35986	328.77991	949.05792	2040.01428	-314.99719	937.29407	1833.80396	56.38484	1089.21667	1951.20972	-73.68499	1077.87024	1907.95056	73.04250	987.25171	1692.53662	206.78113	498.01123	1915.78723	-165.63892	628.86505	1949.24731				-156.05170	201.92346	2025.75525	
375	3.740	-45.65212	1528.71753	2060.03833	17.93351	1737.48474	1837.68506	100.00898	1646.18250	1962.69934	-126.22984	1594.25793	1951.70081	176.30762	1489.29285	1865.16309				3.58350	1374.31421	1903.09998				305.86142	1170.37781	1964.51086	-247.04114	1171.07349	1758.55359	324.84604	951.18463	2060.92944	-319.17822	934.62653	1832.73254	52.88203	1087.41150	1959.85632	-77.30762	1075.86243	1915.67529	71.61673	985.92120	1702.94348	205.51385	494.91843	1911.54004	-169.49637	627.00214	1954.00623				-167.01178	201.28951	2052.50244	
